<svg width="32" height="32" viewBox="0 0 32 32" fill="none" xmlns="http://www.w3.org/2000/svg">
<g clip-path="url(#clip0_19_3608)">
<path d="M20.4853 3.51592C18.0253 1.05592 14.616 -0.222751 11.132 0.0305821C5.09733 0.457249 0 6.11858 0 12.3946V19.1119C0 21.8066 2.18933 23.9999 4.88133 23.9999H10.8507C17.7667 23.9999 23.5293 19.1106 23.9693 12.8679C24.216 9.38391 22.9453 5.97458 20.4853 3.51458V3.51592ZM6 13.9999C4.896 13.9999 4 13.1039 4 11.9999C4 10.8959 4.896 9.99992 6 9.99992C7.104 9.99992 8 10.8959 8 11.9999C8 13.1039 7.104 13.9999 6 13.9999ZM12 13.9999C10.896 13.9999 10 13.1039 10 11.9999C10 10.8959 10.896 9.99992 12 9.99992C13.104 9.99992 14 10.8959 14 11.9999C14 13.1039 13.104 13.9999 12 13.9999ZM18 13.9999C16.896 13.9999 16 13.1039 16 11.9999C16 10.8959 16.896 9.99992 18 9.99992C19.104 9.99992 20 10.8959 20 11.9999C20 13.1039 19.104 13.9999 18 13.9999ZM32 21.3333V27.9999C32 30.2092 30.2093 31.9999 28 31.9999H21.3333C17.3933 31.9999 13.9533 29.8466 12.1067 26.6613C12.0947 26.6439 12.0853 26.6292 12.0747 26.6119C19.8293 26.0572 26.1173 20.3092 26.6293 13.0559C26.652 12.7372 26.644 12.4199 26.6453 12.1026C26.6507 12.1039 26.656 12.1052 26.6613 12.1066C29.8467 13.9532 32 17.3932 32 21.3333Z" fill="black"/>
</g>
<defs>
<clipPath id="clip0_19_3608">
<rect width="32" height="32" fill="white"/>
</clipPath>
</defs>
</svg>
