<svg width="32" height="32" viewBox="0 0 32 32" fill="none" xmlns="http://www.w3.org/2000/svg">
<g clip-path="url(#clip0_19_3601)">
<path d="M32 21.3333V28C32 30.2093 30.2093 32 28 32H21.3333C17.3933 32 13.9533 29.8467 12.1067 26.6613C13.132 26.6533 14.1307 26.54 15.096 26.3307C16.564 28.1587 18.812 29.3333 21.3333 29.3333H28C28.736 29.3333 29.3333 28.736 29.3333 28V21.3333C29.3333 18.812 28.1587 16.564 26.3307 15.096C26.5387 14.1307 26.6533 13.132 26.6613 12.1067C29.8467 13.9533 32 17.3933 32 21.3333ZM10.8507 24H4.88133C2.18933 24 0 21.8067 0 19.112V12.3947C0 6.11866 5.09733 0.457324 11.132 0.0306577C18.2187 -0.642676 24.6333 5.78399 23.9693 12.868C23.528 19.1107 17.7667 24 10.8507 24ZM21.3093 12.6813C21.7987 7.41466 17.26 2.55199 11.984 2.66666C7.004 2.61599 2.668 7.23066 2.66667 12.3947V19.112C2.66667 20.3373 3.66 21.3333 4.88133 21.3333H10.8507C16.2813 21.3333 20.9733 17.452 21.3093 12.6813ZM12 9.99999C10.896 9.99999 10 10.896 10 12C10 13.104 10.896 14 12 14C13.104 14 14 13.104 14 12C14 10.896 13.104 9.99999 12 9.99999ZM6.66667 9.99999C5.56267 9.99999 4.66667 10.896 4.66667 12C4.66667 13.104 5.56267 14 6.66667 14C7.77067 14 8.66667 13.104 8.66667 12C8.66667 10.896 7.77067 9.99999 6.66667 9.99999ZM17.3333 9.99999C16.2293 9.99999 15.3333 10.896 15.3333 12C15.3333 13.104 16.2293 14 17.3333 14C18.4373 14 19.3333 13.104 19.3333 12C19.3333 10.896 18.4373 9.99999 17.3333 9.99999Z" fill="#8D8D8D"/>
</g>
<defs>
<clipPath id="clip0_19_3601">
<rect width="32" height="32" fill="white"/>
</clipPath>
</defs>
</svg>
