<svg width="32" height="32" viewBox="0 0 32 32" fill="none" xmlns="http://www.w3.org/2000/svg">
<g clip-path="url(#clip0_19_3663)">
<path d="M30.3199 15.5987C30.3279 13.9913 29.7172 12.0506 26.8916 11.5335C26.745 11.2536 26.5836 10.9724 26.4063 10.6898C27.8304 8.71852 27.721 6.88986 26.0756 5.24512C24.4288 3.59772 22.5993 3.48976 20.6258 4.91857C20.3471 4.74264 20.0684 4.5827 19.7897 4.43875C19.2803 1.62377 17.3575 1 15.7533 1C13.5038 1 12.0584 2.18757 11.6383 4.49739C11.361 4.64267 11.0809 4.80395 10.7996 4.97989C8.83541 3.56173 7.00459 3.68302 5.34178 5.34242C3.68431 7.00048 3.5643 8.83182 4.97908 10.7951C4.80174 11.0777 4.63906 11.3589 4.49104 11.6388C2.18551 12.06 1.01208 13.4315 1.00008 15.7213C0.992076 17.3287 1.6028 19.2694 4.42837 19.7865C4.57505 20.0664 4.7364 20.3476 4.91508 20.6302C3.48962 22.6015 3.59897 24.4301 5.24444 26.0749C6.89125 27.7223 8.72207 27.8302 10.6942 26.4014C10.9729 26.5774 11.2516 26.7373 11.5303 26.8813C12.0397 29.6962 13.9625 30.32 15.5667 30.32C17.9469 30.32 19.2616 29.1324 19.6817 26.8226C19.959 26.6773 20.2391 26.5161 20.5204 26.3401C23.6554 28.6979 25.9769 25.9776 25.9782 25.9776C27.597 24.4461 27.757 22.4882 26.3409 20.5236C26.5183 20.241 26.6809 19.9598 26.829 19.6812C29.1345 19.26 30.3079 17.8885 30.3199 15.5987ZM18.9429 18.9415C17.8535 20.0317 16.8188 20.6395 15.3826 20.5542C14.0279 20.4729 13.0184 19.5839 12.3771 18.9415C10.1982 16.7649 10.1982 14.5551 12.3771 12.3772C13.5532 11.199 14.7159 10.6632 15.9374 10.7658C17.2908 10.8697 18.3016 11.7361 18.9429 12.3785C21.1205 14.5551 21.1218 16.7649 18.9429 18.9428V18.9415Z" fill="black"/>
</g>
<defs>
<clipPath id="clip0_19_3663">
<rect width="32" height="32" fill="white"/>
</clipPath>
</defs>
</svg>
