<svg width="32" height="32" viewBox="0 0 32 32" fill="none" xmlns="http://www.w3.org/2000/svg">
<path d="M16.2774 11.104C15.056 11.0014 13.8934 11.5387 12.7174 12.716C10.5387 14.896 10.5387 17.1054 12.7174 19.2827C13.3587 19.9254 14.3694 20.8054 15.7227 20.896C17.0107 20.9814 18.1947 20.3734 19.2827 19.2827C21.4614 17.104 21.46 14.8934 19.2827 12.716C18.6414 12.0734 17.6307 11.2067 16.2774 11.1027V11.104ZM17.3974 17.3987C16.9947 17.8014 16.3747 18.272 15.928 18.2374C15.5787 18.2107 15.1334 17.928 14.604 17.3987C13.5547 16.3494 13.408 15.7987 14.604 14.6014C14.992 14.2134 15.5454 13.7614 16.0187 13.7614C16.0374 13.7614 16.056 13.7614 16.0734 13.7627C16.4227 13.7894 16.868 14.072 17.3974 14.6014C18.4467 15.6507 18.5934 16.2014 17.3974 17.3987Z" fill="#8D8D8D"/>
<path d="M30.6587 15.9387C30.6667 14.3307 30.0561 12.3893 27.2307 11.872C27.0841 11.592 26.9227 11.3107 26.7454 11.028C28.1694 9.05599 28.0601 7.22666 26.4147 5.58132C24.7681 3.93332 22.9387 3.82532 20.9654 5.25466C20.6867 5.07866 20.4081 4.91866 20.1294 4.77466C19.6201 1.95866 17.6974 1.33466 16.0934 1.33466C13.8401 1.33466 12.3987 2.52266 11.9787 4.83332C11.7014 4.97866 11.4214 5.13999 11.1401 5.31599C9.17605 3.89732 7.34539 4.01866 5.68272 5.67866C4.02539 7.33732 3.90539 9.16932 5.32005 11.1333C5.14272 11.416 4.98005 11.6973 4.83205 11.9773C2.52672 12.3987 1.35339 13.7707 1.34139 16.0613C1.33339 17.6693 1.94405 19.6107 4.76939 20.128C4.91605 20.408 5.07739 20.6893 5.25605 20.972C3.83072 22.944 3.94005 24.7733 5.58539 26.4187C7.23205 28.0667 9.06272 28.1747 11.0347 26.7453C11.3134 26.9213 11.5921 27.0813 11.8707 27.2253C12.3801 30.0413 14.3027 30.6653 15.9067 30.6653C18.2014 30.6653 19.6014 29.4773 20.0214 27.1667C20.2987 27.0213 20.5787 26.86 20.8601 26.684C22.8214 28.0987 24.6467 27.9747 26.3161 26.3213C27.9854 24.668 28.0947 22.8307 26.6801 20.8653C26.8574 20.5827 27.0201 20.3013 27.1681 20.0227C29.4734 19.6013 30.6467 18.2293 30.6587 15.9387ZM26.1667 17.468C25.6814 17.5093 25.2574 17.8133 25.0614 18.2587C24.7934 18.8667 24.4174 19.504 23.9427 20.1507C23.5667 20.664 23.6067 21.3733 24.0374 21.8427C25.4681 23.3973 24.9881 23.8787 24.4307 24.436C23.8507 25.0173 23.3907 25.476 21.8401 24.0413C21.3707 23.6093 20.6627 23.5693 20.1467 23.9453C19.5027 24.4173 18.8681 24.792 18.2587 25.0573C17.8121 25.2533 17.5081 25.6773 17.4654 26.1653C17.3081 27.992 16.6654 27.996 15.9227 27.9987C15.1694 27.9987 14.5654 28.0067 14.4267 26.2307C14.3881 25.736 14.0787 25.304 13.6227 25.1093C13.0174 24.8493 12.3867 24.48 11.7494 24.0093C11.5134 23.8347 11.2347 23.7493 10.9574 23.7493C10.6321 23.7493 10.3081 23.868 10.0534 24.1027C8.48139 25.552 8.01072 25.0787 7.46805 24.5347C6.92272 23.9893 6.45205 23.5173 7.89739 21.948C8.33072 21.4773 8.36939 20.7667 7.98805 20.252C7.51339 19.6107 7.14139 18.9787 6.88139 18.376C6.68672 17.9213 6.25472 17.612 5.76272 17.5733C3.99605 17.432 3.99872 16.8333 4.00272 16.076C4.00672 15.3013 4.00939 14.6893 5.82805 14.532C6.31339 14.4907 6.73739 14.1867 6.93339 13.7413C7.20272 13.132 7.57872 12.4947 8.05205 11.848C8.42805 11.3347 8.38805 10.6253 7.95739 10.156C6.52672 8.60266 7.00805 8.12132 7.56405 7.56399C8.14405 6.98399 8.60405 6.52532 10.1547 7.95732C10.6241 8.39066 11.3321 8.42932 11.8467 8.05332C12.4921 7.58132 13.1267 7.20799 13.7361 6.94132C14.1827 6.74532 14.4867 6.32132 14.5294 5.83332C14.6867 4.00666 15.3294 4.00266 16.0721 3.99999C16.8361 4.00532 17.4294 3.99199 17.5681 5.76799C17.6067 6.26266 17.9161 6.69466 18.3721 6.88932C18.9774 7.14932 19.6081 7.51866 20.2454 7.98932C20.7587 8.36799 21.4707 8.32932 21.9401 7.89732C23.5121 6.44799 23.9814 6.92132 24.5254 7.46532C25.0707 8.01066 25.5427 8.48266 24.0961 10.052C23.6627 10.5227 23.6241 11.2347 24.0041 11.748C24.4787 12.3893 24.8507 13.0213 25.1107 13.624C25.3054 14.0787 25.7374 14.388 26.2294 14.4267C27.9961 14.568 27.9934 15.1667 27.9894 15.924C27.9854 16.6987 27.9827 17.3107 26.1641 17.468H26.1667Z" fill="#8D8D8D"/>
</svg>
