<svg width="32" height="32" viewBox="0 0 32 32" fill="none" xmlns="http://www.w3.org/2000/svg">
<g clip-path="url(#clip0_19_3615)">
<path d="M28 8.00002H6.66667C5.52133 8.00002 4.43733 7.50402 3.68667 6.66802C4.42 5.84935 5.48533 5.33335 6.66667 5.33335H30.6667C32.4107 5.32535 32.4093 2.67335 30.6667 2.66669H6.66667C2.98533 2.66669 0 5.65202 0 9.33335V22.6667C0 26.348 2.98533 29.3334 6.66667 29.3334H28C30.2093 29.3334 32 27.5427 32 25.3334V12C32 9.79069 30.2093 8.00002 28 8.00002ZM26.6667 20C24.9227 19.992 24.9227 17.3414 26.6667 17.3334C28.4107 17.3414 28.4107 19.992 26.6667 20Z" fill="black"/>
</g>
<defs>
<clipPath id="clip0_19_3615">
<rect width="32" height="32" fill="white"/>
</clipPath>
</defs>
</svg>
