<svg width="32" height="32" viewBox="0 0 32 32" fill="none" xmlns="http://www.w3.org/2000/svg">
<path d="M28 8.00002H6.66667C5.52133 8.00002 4.43733 7.50402 3.68667 6.66802C4.42 5.84935 5.48533 5.33335 6.66667 5.33335H30.6667C31.404 5.33335 32 4.73602 32 4.00002C32 3.26402 31.404 2.66669 30.6667 2.66669H6.66667C2.98533 2.66669 0 5.65202 0 9.33335V22.6667C0 26.348 2.98533 29.3334 6.66667 29.3334H28C30.2093 29.3334 32 27.5427 32 25.3334V12C32 9.79069 30.2093 8.00002 28 8.00002ZM29.3333 25.3334C29.3333 26.068 28.736 26.6667 28 26.6667H6.66667C4.46133 26.6667 2.66667 24.872 2.66667 22.6667V9.33069C3.80533 10.1827 5.20533 10.6667 6.66667 10.6667H28C28.736 10.6667 29.3333 11.2654 29.3333 12V25.3334ZM26.6667 18.6667C26.6667 19.4027 26.0693 20 25.3333 20C24.5973 20 24 19.4027 24 18.6667C24 17.9307 24.5973 17.3334 25.3333 17.3334C26.0693 17.3334 26.6667 17.9307 26.6667 18.6667Z" fill="#8D8D8D"/>
</svg>
