<?xml version="1.0" encoding="UTF-8"?>
<svg id="Calque_2" data-name="Calque 2" xmlns="http://www.w3.org/2000/svg" viewBox="0 0 584.52 128.43">
  <g id="Calque_1-2" data-name="Calque 1">
    <g>
      <g>
        <path d="M122.04,128.43v-9.53h47.81c3.85,0,6.56-.6,8.12-1.8,1.56-1.2,2.34-3.2,2.34-6.02s-.78-4.82-2.34-6.01c-1.56-1.2-4.27-1.8-8.12-1.8h-30.78c-5.52,0-9.71-1.02-12.58-3.05-2.87-2.03-4.3-5.02-4.3-8.98,0-3.33,1.07-5.99,3.2-7.97,2.13-1.98,5.23-3.18,9.3-3.59v-3.28c-4.37-2.08-7.66-5.18-9.84-9.3-2.19-4.11-3.28-9.04-3.28-14.76,0-9.48,2.91-16.77,8.75-21.87,5.83-5.1,13.96-7.66,24.37-7.66s18.54,2.55,24.37,7.66c5.83,5.1,8.75,12.4,8.75,21.87s-2.89,16.25-8.67,21.25c-5.78,5-13.83,7.5-24.14,7.5h-12.34c-3.23,0-5.55.44-6.95,1.33-1.41.89-2.11,2.42-2.11,4.61s.7,3.59,2.11,4.53c1.41.94,3.72,1.41,6.95,1.41h29.84c6.56,0,11.56,1.48,15,4.45s5.16,7.27,5.16,12.89c0,5.94-1.88,10.44-5.62,13.52-3.75,3.07-9.17,4.61-16.25,4.61h-48.75ZM154.7,71.56c6.98,0,12.19-1.49,15.62-4.45,3.44-2.97,5.16-7.63,5.16-13.98v-1.87c0-6.35-1.72-11.02-5.16-13.98-3.44-2.97-8.65-4.45-15.62-4.45s-12.06,1.49-15.55,4.45c-3.49,2.97-5.23,7.63-5.23,13.98v1.87c0,6.36,1.74,11.02,5.23,13.98,3.49,2.97,8.67,4.45,15.55,4.45ZM168.76,28.12c0-4.48,1.04-7.81,3.12-10,2.08-2.19,5.26-3.28,9.53-3.28h11.09v9.53h-15.16c-3.75,0-5.62,2.24-5.62,6.72l-2.97-2.97Z"/>
        <path d="M243.13,109.37c-7.92,0-14.69-1.66-20.31-5-5.63-3.33-9.92-8.23-12.89-14.69-2.97-6.46-4.45-14.32-4.45-23.59s1.48-17.26,4.45-23.67c2.97-6.41,7.27-11.27,12.89-14.61,5.62-3.33,12.39-5,20.31-5s14.66,1.67,20.23,5c5.57,3.33,9.84,8.2,12.81,14.61,2.97,6.41,4.45,14.3,4.45,23.67s-1.48,17.14-4.45,23.59c-2.97,6.46-7.24,11.35-12.81,14.69-5.57,3.33-12.32,5-20.23,5ZM243.13,99.06c8.44,0,14.63-2.37,18.59-7.11,3.96-4.74,5.94-12.11,5.94-22.11v-7.5c0-10-1.98-17.37-5.94-22.11-3.96-4.74-10.16-7.11-18.59-7.11s-14.66,2.37-18.67,7.11c-4.01,4.74-6.02,12.11-6.02,22.11v7.5c0,10,2,17.37,6.02,22.11,4.01,4.74,10.23,7.11,18.67,7.11Z"/>
        <path d="M330.32,109.37c-10.21,0-18.1-2.16-23.67-6.48-5.57-4.32-9.09-11.17-10.55-20.55h12.34v.31c0,2.71.65,5.34,1.95,7.89,1.3,2.55,3.54,4.64,6.72,6.25,3.18,1.62,7.58,2.42,13.2,2.42,6.77,0,12.03-1.2,15.78-3.59,3.75-2.4,5.63-5.73,5.63-10,0-3.33-1.15-5.91-3.44-7.73-2.29-1.82-6.25-3.36-11.87-4.61l-17.19-3.75c-7.81-1.77-13.49-4.4-17.03-7.89-3.54-3.49-5.31-8.15-5.31-13.98,0-7.92,2.86-14.03,8.59-18.36,5.73-4.32,13.85-6.48,24.37-6.48s17.79,2.16,23.36,6.48c5.57,4.32,9.14,11.17,10.7,20.55h-12.34v-.31c0-2.71-.62-5.34-1.88-7.89-1.25-2.55-3.46-4.63-6.64-6.25-3.18-1.61-7.58-2.42-13.2-2.42-6.56,0-11.69,1.17-15.39,3.52-3.7,2.34-5.55,5.7-5.55,10.08,0,3.34,1.14,5.91,3.44,7.73,2.29,1.82,6.15,3.36,11.56,4.61l17.19,3.75c7.92,1.77,13.7,4.35,17.34,7.73,3.64,3.39,5.47,8.05,5.47,13.98,0,7.92-2.92,14.06-8.75,18.44-5.84,4.37-14.12,6.56-24.84,6.56Z"/>
        <path d="M413.44,109.37c-10.21,0-18.1-2.16-23.67-6.48-5.57-4.32-9.09-11.17-10.55-20.55h12.34v.31c0,2.71.65,5.34,1.95,7.89,1.3,2.55,3.54,4.64,6.72,6.25,3.18,1.62,7.58,2.42,13.2,2.42,6.77,0,12.03-1.2,15.78-3.59,3.75-2.4,5.63-5.73,5.63-10,0-3.33-1.15-5.91-3.44-7.73-2.29-1.82-6.25-3.36-11.87-4.61l-17.19-3.75c-7.81-1.77-13.49-4.4-17.03-7.89-3.54-3.49-5.31-8.15-5.31-13.98,0-7.92,2.86-14.03,8.59-18.36,5.73-4.32,13.85-6.48,24.37-6.48s17.79,2.16,23.36,6.48c5.57,4.32,9.14,11.17,10.7,20.55h-12.34v-.31c0-2.71-.62-5.34-1.88-7.89-1.25-2.55-3.46-4.63-6.64-6.25-3.18-1.61-7.58-2.42-13.2-2.42-6.56,0-11.69,1.17-15.39,3.52-3.7,2.34-5.55,5.7-5.55,10.08,0,3.34,1.14,5.91,3.44,7.73,2.29,1.82,6.15,3.36,11.56,4.61l17.19,3.75c7.92,1.77,13.7,4.35,17.34,7.73,3.64,3.39,5.47,8.05,5.47,13.98,0,7.92-2.92,14.06-8.75,18.44-5.84,4.37-14.12,6.56-24.84,6.56Z"/>
        <path d="M471.72,107.81V33.91h-13.44v-9.53h25.62v83.44h-12.19ZM470.15,12.97V0h14.84v12.97h-14.84Z"/>
        <path d="M512.49,128.43V33.91h-11.87v-9.53h21.87v15h3.75c2.6-5.63,5.96-9.79,10.08-12.5,4.11-2.71,9.14-4.06,15.08-4.06,6.98,0,12.91,1.67,17.81,5,4.89,3.33,8.67,8.23,11.33,14.69,2.66,6.46,3.98,14.32,3.98,23.59s-1.33,17.01-3.98,23.52c-2.66,6.51-6.43,11.43-11.33,14.77-4.9,3.33-10.83,5-17.81,5-5.94,0-10.91-1.28-14.92-3.83-4.01-2.55-7.27-6.54-9.76-11.95h-3.75c.52,4.9.91,8.8,1.17,11.72.26,2.91.39,5.52.39,7.81v15.31h-12.03ZM547.96,99.06c8.12,0,14.09-2.34,17.89-7.03,3.8-4.69,5.7-12.03,5.7-22.03v-7.81c0-10.1-1.9-17.47-5.7-22.11-3.8-4.63-9.76-6.95-17.89-6.95s-13.93,2.32-17.73,6.95c-3.8,4.64-5.7,12.01-5.7,22.11v7.81c0,10,1.9,17.34,5.7,22.03,3.8,4.69,9.71,7.03,17.73,7.03Z"/>
      </g>
      <path d="M12.55,27.52c4.21-3.71,9.28-6.5,15.18-8.37,5.9-1.87,12.62-2.81,20.12-2.81,15.01,0,26.85,3.76,35.18,11.17,8.25,7.35,12.43,18.07,12.43,31.88s-4.18,23.72-12.41,30.91c-8.34,7.27-20.18,10.96-35.2,10.96h-19.17c-3.9,0-7.07,3.43-9.58,4.17l.07-4.58v-5.88l-1.16-.64c-5.95-3.26-10.48-7.87-13.46-13.68-3.02-5.88-4.55-13.04-4.55-21.27,0-13.79,4.22-24.52,12.55-31.87ZM10.87,60.12c0,11.34,3.2,19.85,9.53,25.3,6.22,5.37,15.45,8.09,27.45,8.09s21.21-2.72,27.36-8.09c6.24-5.46,9.4-13.97,9.4-25.29v-1.92c0-11.33-3.16-19.84-9.4-25.29-6.15-5.38-15.35-8.11-27.36-8.11s-21.24,2.72-27.46,8.09c-6.31,5.44-9.52,13.95-9.52,25.3v1.92Z"/>
      <circle cx="50.8" cy="62.45" r="8.94"/>
      <circle cx="27.16" cy="62.45" r="8.94"/>
    </g>
  </g>
</svg>